<svg xmlns="http://www.w3.org/2000/svg" viewBox="0 0 93.6 112"><title>Asset 4</title><g id="Layer_2" data-name="Layer 2"><g id="Layer_1-2" data-name="Layer 1"><path d="M0,0H93.6V96.6H0ZM5.6,91.6H87.2V5.8H5.6ZM56.8,62.4c0-1.6,0-2.9-.1-3.9s-.37-1.57-.9-1.7q-1-1.61-5.8-1.6v-6l17.8.6q4.2,0,7.8-.1c2.4-.07,4.73-.23,7-.5v6q-5.2,0-6.4,2.8c-.4.27-.6,1.73-.6,4.4V77.2a27.43,27.43,0,0,0-4.3.4c-1.67.27-3.57.53-5.7.8q-4.6,1.2-7,1.7a25.79,25.79,0,0,1-2.8.5,5.82,5.82,0,0,0-1.4.3c-.67.2-1.6.43-2.8.7a7.46,7.46,0,0,1-2.4.4H47.4Q23.81,82,17,65.6a47.17,47.17,0,0,1-1.9-7.3,47.85,47.85,0,0,1-.7-8.5,49.42,49.42,0,0,1,2.1-15,21.53,21.53,0,0,1,6.7-10.4,32.53,32.53,0,0,1,11.2-6.2A50.13,50.13,0,0,1,50.2,16q7.39,0,22.6,3.4v16H65a22.22,22.22,0,0,0-1.7-6.9,8.05,8.05,0,0,0-3.7-4.1q-2.2-1.61-8.8-1.6-10.2,0-14,8.4a49.21,49.21,0,0,0-2.1,7.9,59.71,59.71,0,0,0-.9,11.1,51.27,51.27,0,0,0,.6,8.5q.6,3.49,1,6.9,3.41,11.2,12.8,11.2,4,0,8-4.6.6-.8.6-6.6Zm35.8,43.2a8.1,8.1,0,0,1-.4,2.6,4.62,4.62,0,0,1-1.8,2.2A5.93,5.93,0,0,1,86,112a6.94,6.94,0,0,1-4.8-1.6,8.42,8.42,0,0,1-1.6-2.2,5.74,5.74,0,0,1-.6-2.6,5,5,0,0,1,.6-2.6,10.39,10.39,0,0,1,1.6-2,8.42,8.42,0,0,1,2.2-1.6,5.74,5.74,0,0,1,2.6-.6,4.46,4.46,0,0,1,2.5.6,12.71,12.71,0,0,1,1.9,1.6,4.94,4.94,0,0,1,1.8,2A7,7,0,0,1,92.6,105.6Zm-1.2,0q0-5.4-5.4-5.4-5.2,0-5.2,5.4T86,111a5.46,5.46,0,0,0,5.4-5.4ZM88,109.4,86,106H84.4v3.4H83.2V102h3a4.82,4.82,0,0,1,2,.3q.6.3.6,1.5a2.19,2.19,0,0,1-1.6,2.2l2,3.4Zm-.4-5.6c0-.8-.47-1.2-1.4-1.2H84.4v2.6H86C87.07,105.2,87.6,104.73,87.6,103.8Z" fill="white"/></g></g></svg>