<svg xmlns="http://www.w3.org/2000/svg" viewBox="0 0 294.8 117"><title>Asset 2</title><g id="Layer_2" data-name="Layer 2"><g id="Layer_1-2" data-name="Layer 1"><path d="M294.8,0V95.6H0V0ZM5.2,6.2V89.8H288.6V6.2ZM16.8,27.6c0-1.6,0-2.9-.1-3.9a2,2,0,0,0-1.1-1.9q-.79-2-5.6-2V15.6c2.8.27,5.5.43,8.1.5s5,.1,7.3.1h9.4c2.13-.27,4.13-.43,6-.5s3.87-.1,6-.1q10.8,0,16.5,4.5T69,33.2a35.28,35.28,0,0,1-1,9.1,15.92,15.92,0,0,1-3,6.1,16.71,16.71,0,0,1-6.3,3.8A29.05,29.05,0,0,1,49,53.6q-4,.4-6.7.4H38V65q0,5,1.4,6.8a9.37,9.37,0,0,0,2.4.7,25.12,25.12,0,0,0,4.4.3V77H42.7a33.71,33.71,0,0,1-4.7-.4H19.2a49.58,49.58,0,0,1-5.7.4H10.4V72.8c3.33,0,5.27-.67,5.8-2a3.48,3.48,0,0,0,.5-2c.07-1.07.1-2.33.1-3.8ZM38,47.2q6,0,8.2-3A8.17,8.17,0,0,0,48,40a41,41,0,0,0,.4-6.2q0-11.59-6.8-11.6a9.77,9.77,0,0,0-1.2.1,22.69,22.69,0,0,0-2.4.5Zm34.2,9c-.27-1.6-.5-3.2-.7-4.8a42,42,0,0,1-.3-5.2q0-17.6,11-24.4Q91.4,15,110.8,15a108.7,108.7,0,0,1,13.4.8q6.4.79,12,1.8V32.2h-7.8q-3-11.4-17.2-11.4a22.14,22.14,0,0,0-9,1.6,13.38,13.38,0,0,0-6,5.6,21.52,21.52,0,0,0-2.8,7.8,61.42,61.42,0,0,0-.8,10.4l.4,10q3.41,16.6,15.8,16.6,4.4,0,9.2-5.8a2.5,2.5,0,0,0,.4-1.7V56.2a6.5,6.5,0,0,1-.4-2V53a4.11,4.11,0,0,0-1.9-.7,23.34,23.34,0,0,0-4.3-.3V45.8H130a20.58,20.58,0,0,0,4.1.4h7.8a12.62,12.62,0,0,0,3.1-.4V52h-1.6q-3.79,0-5,2.6v.6a4.93,4.93,0,0,1-.6,1h.6a4.9,4.9,0,0,0-.5,1.5,11.77,11.77,0,0,0-.1,1.7V73.8q-4,0-20.4,2.8l-4,1a7.19,7.19,0,0,1-2.3.4h-1.9Q77.6,78,72.2,56.2ZM173.6,49V61.2H149.8V49Zm25.6-17.2a35.29,35.29,0,0,1-6,3.1q-3.6,1.5-9.2,3.7V32.2q14.81-4.8,21-12.4h12.8V62.4q0,4.8,2.2,6.2,1.4,1.61,7.8,1.6v5.2H188.2V70.2c1.47-.13,2.7-.27,3.7-.4s1.83-.27,2.5-.4,1.47-.27,2-.4a5,5,0,0,0,2.1-2.3,10.41,10.41,0,0,0,.7-4.3Zm62,24.4a12,12,0,0,0-3-5.9q-2-1.9-6-1.9H247V43.6h4.6a13.25,13.25,0,0,0,3.6-.4,6.12,6.12,0,0,0,2.8-2,17.33,17.33,0,0,0,1.7-3.7,16.93,16.93,0,0,0,.7-5.3q0-7.8-5.6-7.8-5.81,1-5.8,7.4v1.4a2.42,2.42,0,0,1-.3,1.4,7.15,7.15,0,0,1-.7.8,2.85,2.85,0,0,1-1.6.9,10.8,10.8,0,0,1-1.4.1h-6.8a5.09,5.09,0,0,1-3.3-.8,3,3,0,0,1-.9-2.4q.6-13.4,21.4-13.4,24.79,0,24.8,14,0,9.8-7.6,11.4a32.27,32.27,0,0,1,4.6,3.1,18.77,18.77,0,0,1,2.6,2.5q1.4,1.61,1.4,5.4l.8,3.6q0,7.8-6.2,11.7T258,75.4q-24,0-24-13,0-3.6,3.6-3.6h8.2a3.84,3.84,0,0,1,2.7,1,3.36,3.36,0,0,1,1.1,2.6l1.2,4.6q.6,3.8,4.6,3.8,5.8,0,5.8-12Zm15,51.8a8.72,8.72,0,0,1,.5-3.1,8.82,8.82,0,0,1,2.1-2.9,7.1,7.1,0,0,1,6-2.6,11.69,11.69,0,0,1,3.5.6,5.46,5.46,0,0,1,2.9,2,24,24,0,0,1,1.9,2.9,6.42,6.42,0,0,1,.7,3.1,8.71,8.71,0,0,1-2.6,6.4,4.71,4.71,0,0,1-2.9,2.1,14,14,0,0,1-3.5.5,11.46,11.46,0,0,1-3.4-.5,4.69,4.69,0,0,1-2.6-2.1,5.63,5.63,0,0,1-2.1-2.7A12,12,0,0,1,276.2,108Zm8.6,8a5,5,0,0,0,2.8-.8,14.16,14.16,0,0,0,2.2-1.8,6.32,6.32,0,0,0,2.4-5.4,7.08,7.08,0,0,0-2.4-5,5.76,5.76,0,0,0-5-2.2,7.54,7.54,0,0,0-7.2,7.2,9.82,9.82,0,0,0,.5,3.1,4.27,4.27,0,0,0,1.7,2.3,12.22,12.22,0,0,0,2.3,1.8A5.13,5.13,0,0,0,284.8,116Zm-1.8-2.6-1.8-10h4.4a5.87,5.87,0,0,1,2.6.5,2.1,2.1,0,0,1,1,2.1,3.18,3.18,0,0,1-2.6,3.2l2.6,4.2-4.4-4.2H283Zm1.8-5.8c1.87,0,2.8-.53,2.8-1.6s-.93-1.6-2.8-1.6H283v3.2Z" fill="white"/></g></g></svg>