<svg xmlns="http://www.w3.org/2000/svg" viewBox="0 0 107.2 113"><title>Asset 1</title><g id="Layer_2" data-name="Layer 2"><g id="Layer_1-2" data-name="Layer 1"><path d="M107.2,0V97.8H0V0Zm-5,93.4V4.8H4.6V93.4ZM56.2,66a7.65,7.65,0,0,1-1.6-2,54.32,54.32,0,0,0-3.4-4.6q-2.4-3-6.6-8.8V68.4q0,4.2,2.1,5.9T53.2,76v3.8h-40V76a34.29,34.29,0,0,0,5.1-.3A3.53,3.53,0,0,0,21,74a8.36,8.36,0,0,1,.3-1.6,18.51,18.51,0,0,0,.3-4V27.2a19.24,19.24,0,0,0-.3-3.7,4.11,4.11,0,0,0-.7-1.9c-.67-1.07-3.13-1.6-7.4-1.6V16H59.8a71,71,0,0,1,10.2.6A33.88,33.88,0,0,1,76.2,18a13.23,13.23,0,0,1,6.3,5.1,15.16,15.16,0,0,1,2.3,8.5,12.92,12.92,0,0,1-1.5,6.2,17.57,17.57,0,0,1-3.7,4.8,22.25,22.25,0,0,1-13.4,4.2L84.8,70.4a12,12,0,0,0,4.4,3.3A20.86,20.86,0,0,0,97,75.2v4.6H65.2q-1.61-3-3.7-6.7A37.25,37.25,0,0,0,56.2,66ZM44.6,45.2q7.8,0,11.8-2.9t4-9.7q0-10-11-10H44.6Zm47.8,61.4a6.34,6.34,0,0,1,2-4.6,5.58,5.58,0,0,1,2.3-1.7,7.56,7.56,0,0,1,2.7-.5,6.6,6.6,0,0,1,2.3.5,4.31,4.31,0,0,1,2.1,1.7,6.34,6.34,0,0,1,2,4.6,5,5,0,0,1-2,4.4,4.77,4.77,0,0,1-2.1,1.5,6.6,6.6,0,0,1-2.3.5,6.4,6.4,0,0,1-5-2A5,5,0,0,1,92.4,106.6Zm7,5.4q5.4,0,5.4-5.4a3.94,3.94,0,0,0-2-3.6c-.53-.53-1.07-1-1.6-1.5a2.63,2.63,0,0,0-1.8-.7,3.45,3.45,0,0,0-2,.7,13.5,13.5,0,0,0-1.8,1.5,3.9,3.9,0,0,0-1.6,3.6Q94,112,99.4,112ZM98,110H96.6v-7h2.8c1.87,0,2.8.53,2.8,1.6a2.69,2.69,0,0,1-1.8,2.6l1.8,2.8h-1l-1.8-2.8H98Zm1.4-4a1.24,1.24,0,0,0,1.4-1.4c0-.53-.47-.8-1.4-.8H98V106Z" fill="white"/></g></g></svg>