<svg xmlns="http://www.w3.org/2000/svg" viewBox="0 0 154 118"><title>Asset 3</title><g id="Layer_2" data-name="Layer 2"><g id="Layer_1-2" data-name="Layer 1"><path d="M0,69V0H154V69h-6.2V5.8H5V69Zm5,0V91.8H147.8V69H154V97.6H0V69Zm13,0V30.4q0-4.8-1.4-6.2c-.67-.93-2.53-1.4-5.6-1.4v-4H47.2q21.6,0,21.6,17.2,0,10.2-4.2,15Q61,55.4,49.4,56a47.8,47.8,0,0,1-6,.4h-5V69Zm20.4,0q.6,3.6,1.8,4.6c.27.53,1,.87,2.1,1a34.41,34.41,0,0,0,3.9.2v4h-35v-4a18.94,18.94,0,0,0,3.8-.3,3.69,3.69,0,0,0,2.2-1.3,2.62,2.62,0,0,0,.4-1.5A13.48,13.48,0,0,1,18,69Zm0-19.2q6,0,8.2-3.2a12.12,12.12,0,0,0,1.5-4.1,32,32,0,0,0,.5-6.1q0-11.2-6.6-11.2H40.4a1.35,1.35,0,0,1-1,.4h-1ZM77.2,69q-6-7.8-6-20a37.63,37.63,0,0,1,2.6-14.6,20.3,20.3,0,0,1,8-9.6,25,25,0,0,1,11.3-5.1,80.46,80.46,0,0,1,16.5-1.5q7.4,0,13.6.5a63.62,63.62,0,0,1,11.4,1.9v14h-7.8Q124.4,23.39,110,23.4q-10.4,0-14.2,7.4a33.69,33.69,0,0,0-3,7.5A40.48,40.48,0,0,0,91.6,49q0,13.39,5,20Zm19.4,0q3.41,5.81,11.2,5.8,4.4,0,8.8-5.4V69h19.8v7q-4,0-19.8,2.4a62.78,62.78,0,0,1-6.7,1.2c-1.4.13-2,.2-1.7.2Q86,79.8,77.2,69Zm20,0a6.2,6.2,0,0,0,.7-2.8c.07-1.2.1-2.73.1-4.6a32.1,32.1,0,0,1-.4-4.2,2.71,2.71,0,0,0-.4-1.8,5.21,5.21,0,0,0-1.7-.9,11.6,11.6,0,0,0-3.9-.5V48.6h32.2v5.6q-5,0-6.2,2.6-.6.41-.6,4.8V69Zm19.8,40.6a6.82,6.82,0,0,1,2.8-5.6,7.75,7.75,0,0,1,6-2.4q3.8,0,5.6,2.4,2.4,1.8,2.4,5.6a11.46,11.46,0,0,1-.5,3.4,4.93,4.93,0,0,1-1.9,2.6,7.26,7.26,0,0,1-5.6,2.4,8.14,8.14,0,0,1-6-2.4A7.22,7.22,0,0,1,136.4,109.6Zm8.8,7.2a6.34,6.34,0,0,0,4.6-2,8.58,8.58,0,0,0,1.3-2.3,8.09,8.09,0,0,0,.5-2.9,7.19,7.19,0,0,0-1.8-4.6,5.88,5.88,0,0,0-4.6-2.4,5.51,5.51,0,0,0-4.6,2.4,4.77,4.77,0,0,0-1.8,2.1,7.21,7.21,0,0,0-.4,2.5,9.73,9.73,0,0,0,.4,2.9,4.53,4.53,0,0,0,1.8,2.3A5.56,5.56,0,0,0,145.2,116.8Zm-1.8-2.4H142V105h3.6q3.41,0,3.4,2.8a2.73,2.73,0,0,1-2.4,2.8l2.4,3.8h-1.6l-2.2-3.8h-1.8Zm1.8-5.2c1.47,0,2.2-.6,2.2-1.8q0-1.2-1.8-1.2h-2.2v3Z" fill="white"/></g></g></svg>